<svg xmlns="http://www.w3.org/2000/svg" width="1200" height="1200"><path fill="#1A71BA" d="M302.704 978.309l-.044.025.044.025v-.05M123.682 325.032v549.961-.061l179.022-103.326V428.293l-.098.07-178.924-103.331M123.682 874.993v.021L302.613 978.36l.047-.025-178.978-103.342m297.38-171.702l-118.358 68.315v206.702l118.358-68.316V703.291m179.025-103.115v206.486l178.942-103.28-.092-.051v.02l-.061.04-178.789-103.215"/><path fill="#141493" d="M302.704 771.606L123.682 874.933v.06L302.66 978.334l.044-.025V771.606"/><path fill="#DF208C" d="M1076.332 325.068l-179.023 103.33v343.299l.088-.051 178.936 103.331V325.068M897.309 221.646v.045l.037-.025-.037-.02"/><path fill="#FEC338" d="M778.938 496.72l-178.85 103.235v.091l178.85 103.285V496.72m0-343.294L599.916 256.757v136.591l179.022-103.33V153.426M599.916 50v.05l.047-.025-.047-.025"/><path fill="#1A5829" d="M600.087 600.046v.13l178.79 103.215.061-.04v-.02L600.087 600.046"/><path fill="#DF208C" d="M599.916 393.348L420.984 496.629l.078.046v-.025l.071-.04 178.783 103.225V393.348m297.393-171.656l-118.371 68.326V496.72l118.371-68.321V221.692m.078-.046l-.041.02 178.986 103.34v.062-.076L897.387 221.646"/><path fill="#C2054D" d="M897.346 221.667l-.037.025v206.706l179.023-103.33v-.061l-178.986-103.34"/><path fill="#DE1820" d="M778.938 290.018l-179.022 103.33v206.486l.171.101v.02L778.938 496.72V290.018"/><path fill="#FEC642" d="M600.087 806.662l-179.025 103.33v136.642-.06l179.025-103.326V806.662M421.062 496.675v206.616l178.854-103.226v-.105L421.062 496.675"/><path fill="#21934F" d="M599.916 600.065L421.062 703.291v206.701l179.025-103.33V600.176l-.171-.101"/><path fill="#FC960E" d="M600.087 599.955l-.091.05-.08-.045v.115l.101-.07.07.041v-.091"/><path fill="#1A430A" d="M600.017 600.005l-.101.06v.01l.171.101v-.13l-.07-.041"/><path fill="#DE1923" d="M421.133 496.609l-.071.04v.026L599.916 599.96v-.126L421.133 496.609"/><path fill="#DC1207" d="M599.916 599.834v.126l.08.045.091-.05v-.02l-.171-.101"/><path fill="#FEC642" d="M600.087 1149.955l-.041.021.041.024v-.045M897.309 771.697L600.087 943.248v206.707l476.323-274.933-.078-.044v.015l-.072.039-178.951-103.315v-.02"/><path fill="#DE1923" d="M897.396 771.646l-.087.051v.02l178.951 103.315.072-.039-178.936-103.347"/><path fill="#FEC642" d="M421.062 1046.634v.02L600.006 1150l.04-.024-178.984-103.342"/><path fill="#FD9B19" d="M600.087 943.248l-179.025 103.326v.06l178.984 103.342.041-.021V943.248"/><path fill="#FEC338" d="M599.916 50.05L123.59 324.982l.091.05v-.025l.061-.039 178.961 103.325 297.211-171.536V50.05m.092-.05l-.044.025 178.975 103.341v.06-.081L600.006 50"/><path fill="#1A5829" d="M123.743 324.968l-.061.039v.025l178.924 103.331.098-.054v-.016L123.743 324.968"/><path fill="#FD950D" d="M599.962 50.025l-.046.025v206.707l179.022-103.331v-.06L599.962 50.025"/></svg>