<svg width="132" height="31" viewBox="0 0 132 31" fill="none" xmlns="http://www.w3.org/2000/svg">
<path d="M0.4 24L0.4 1.12L8.816 1.12C11.1627 1.12 13.04 1.64267 14.448 2.688C15.8773 3.712 16.592 5.184 16.592 7.104C16.592 8.08533 16.3573 9.024 15.888 9.92C15.4187 10.7947 14.768 11.4773 13.936 11.968V12.032C15.152 12.3947 16.048 13.0667 16.624 14.048C17.2213 15.008 17.52 16.0533 17.52 17.184C17.52 19.5093 16.6987 21.2267 15.056 22.336C13.4133 23.4453 11.3333 24 8.816 24H0.4ZM6 9.984H8.88C9.54133 9.984 10.0427 9.78133 10.384 9.376C10.7253 8.97067 10.896 8.46933 10.896 7.872C10.896 7.296 10.7147 6.82667 10.352 6.464C10.0107 6.10133 9.488 5.92 8.784 5.92H6V9.984ZM6 19.2H9.36C10.128 19.2 10.7253 18.976 11.152 18.528C11.5787 18.0587 11.792 17.4827 11.792 16.8C11.792 16.1173 11.5893 15.5627 11.184 15.136C10.7787 14.688 10.1813 14.464 9.392 14.464H6V19.2ZM19.5228 19.36C19.5228 18.3147 19.8108 17.408 20.3868 16.64C20.9628 15.872 21.7201 15.2853 22.6588 14.88C23.6188 14.4747 24.6108 14.1867 25.6348 14.016C26.6588 13.824 27.7254 13.728 28.8348 13.728H29.3148V13.44C29.3148 12.224 28.5361 11.616 26.9788 11.616C25.5281 11.616 24.0134 12.1387 22.4348 13.184L20.5148 9.28C21.2614 8.704 22.2854 8.20267 23.5868 7.776C24.9094 7.34933 26.2108 7.136 27.4908 7.136C29.7734 7.136 31.5654 7.73333 32.8668 8.928C34.1894 10.1227 34.8508 11.7653 34.8508 13.856V24L29.7948 24V23.008L29.8588 21.984H29.7948C29.2614 22.7307 28.5468 23.3173 27.6508 23.744C26.7761 24.1707 25.8588 24.384 24.8988 24.384C23.3201 24.384 22.0294 23.904 21.0268 22.944C20.0241 21.984 19.5228 20.7893 19.5228 19.36ZM24.9948 18.848C24.9948 19.2533 25.1334 19.5947 25.4108 19.872C25.6881 20.128 26.0721 20.256 26.5628 20.256C27.3308 20.256 27.9921 19.9467 28.5468 19.328C29.1014 18.7093 29.3788 18.048 29.3788 17.344V16.896H28.8668C27.8428 16.896 26.9361 17.056 26.1468 17.376C25.3788 17.6747 24.9948 18.1653 24.9948 18.848ZM38.4623 24V7.52H43.7743V8.96L43.7103 9.984H43.7743C44.9049 8.08533 46.6543 7.136 49.0223 7.136C52.9689 7.136 54.9423 9.19467 54.9423 13.312V24H49.4063V14.336C49.4063 12.8853 48.7983 12.16 47.5823 12.16C46.4089 12.16 45.5129 12.576 44.8943 13.408C44.2969 14.24 43.9983 15.2853 43.9983 16.544V24H38.4623ZM58.5935 24V1.12H64.1295V12.96H65.6975L68.9615 7.52H74.9775L70.1455 15.008V15.072L75.6495 24H69.3455L65.8575 17.6H64.1295V24H58.5935ZM76.5758 21.12L79.5198 16.864C80.2451 17.504 81.1091 18.0587 82.1118 18.528C83.1144 18.9973 84.0851 19.232 85.0238 19.232C85.7704 19.232 86.3464 19.0827 86.7518 18.784C87.1784 18.4853 87.3918 18.1013 87.3918 17.632C87.3918 17.1413 87.1358 16.6933 86.6238 16.288C86.1331 15.8613 85.5144 15.5093 84.7678 15.232C84.0211 14.9547 83.2104 14.6027 82.3358 14.176C81.4611 13.728 80.6504 13.2587 79.9038 12.768C79.1571 12.2773 78.5278 11.6053 78.0158 10.752C77.5251 9.87733 77.2798 8.87467 77.2798 7.744C77.2798 5.65333 78.0478 3.968 79.5838 2.688C81.1411 1.38667 83.1358 0.735998 85.5678 0.735998C88.4051 0.735998 90.7944 1.6 92.7358 3.328L90.3678 7.904C89.7064 7.328 88.9171 6.848 87.9998 6.464C87.0824 6.08 86.1864 5.888 85.3118 5.888C84.5011 5.888 83.8931 6.03733 83.4878 6.336C83.0824 6.63467 82.8798 7.02933 82.8798 7.52C82.8798 8.01067 83.1251 8.45867 83.6158 8.864C84.1278 9.26933 84.7571 9.61067 85.5038 9.888C86.2504 10.144 87.0611 10.4853 87.9358 10.912C88.8104 11.3173 89.6211 11.7653 90.3678 12.256C91.1144 12.7253 91.7331 13.3973 92.2238 14.272C92.7358 15.1253 92.9918 16.1173 92.9918 17.248C92.9918 19.2747 92.2664 20.9707 90.8158 22.336C89.3864 23.7013 87.4024 24.384 84.8638 24.384C83.3278 24.384 81.8238 24.1067 80.3518 23.552C78.9011 22.9973 77.6424 22.1867 76.5758 21.12ZM95.856 30.4V7.52H100.848V8.352L100.784 9.408H100.848C101.979 7.89333 103.643 7.136 105.84 7.136C108.08 7.136 109.872 7.936 111.216 9.536C112.581 11.1147 113.264 13.1947 113.264 15.776C113.264 18.3573 112.539 20.4373 111.088 22.016C109.637 23.5947 107.803 24.384 105.584 24.384C104.005 24.384 102.608 23.8613 101.392 22.816H101.328C101.371 23.2 101.392 23.6693 101.392 24.224V30.4H95.856ZM101.232 15.872C101.232 16.9387 101.509 17.8667 102.064 18.656C102.64 19.424 103.44 19.808 104.464 19.808C105.381 19.808 106.149 19.456 106.768 18.752C107.387 18.048 107.696 17.088 107.696 15.872C107.696 14.656 107.397 13.6747 106.8 12.928C106.203 12.1813 105.424 11.808 104.464 11.808C103.547 11.808 102.779 12.1493 102.16 12.832C101.541 13.5147 101.232 14.528 101.232 15.872ZM115.96 25.504C116.557 25.9093 117.122 26.112 117.656 26.112C118.978 26.112 119.864 25.5573 120.312 24.448L120.632 23.68L113.624 7.52H119.896L122.328 15.104L122.936 17.664H123C123.213 16.6187 123.394 15.7973 123.544 15.2L125.624 7.52H131.672L124.92 25.76C124.28 27.4667 123.33 28.7147 122.072 29.504C120.834 30.3147 119.49 30.72 118.04 30.72C117.4 30.72 116.76 30.624 116.12 30.432C115.48 30.24 115 30.048 114.68 29.856L114.2 29.568L115.96 25.504Z" fill="#157FFF"/>
</svg>
